<svg width="51" height="51" viewBox="0 0 51 51" fill="none" xmlns="http://www.w3.org/2000/svg">
<path d="M37.7917 27.9582H27.9583V37.7915H23.0417V27.9582H13.2083V23.0415H23.0417V13.2082H27.9583V23.0415H37.7917V27.9582ZM25.5 0.916504C22.2717 0.916504 19.0749 1.55237 16.0924 2.7878C13.1098 4.02323 10.3997 5.83402 8.11695 8.1168C3.50668 12.7271 0.916656 18.9799 0.916656 25.4998C0.916656 32.0197 3.50668 38.2726 8.11695 42.8829C10.3997 45.1657 13.1098 46.9765 16.0924 48.2119C19.0749 49.4473 22.2717 50.0832 25.5 50.0832C32.0199 50.0832 38.2728 47.4932 42.883 42.8829C47.4933 38.2726 50.0833 32.0197 50.0833 25.4998C50.0833 22.2715 49.4475 19.0748 48.212 16.0922C46.9766 13.1096 45.1658 10.3996 42.883 8.1168C40.6003 5.83402 37.8902 4.02323 34.9076 2.7878C31.925 1.55237 28.7283 0.916504 25.5 0.916504V0.916504Z" fill="black" fill-opacity="0.2"/>
</svg>
