<svg width="22" height="22" viewBox="0 0 22 22" fill="none" xmlns="http://www.w3.org/2000/svg">
<path d="M19 18.35L1.37999 0.72998L0.109985 1.99998L3.76999 5.65998C3.26999 6.33998 2.99999 7.15998 2.99999 7.99998V19C2.99999 19.5304 3.2107 20.0391 3.58577 20.4142C3.96084 20.7893 4.46955 21 4.99999 21H17C17.56 21 18.08 20.76 18.46 20.35L19.84 21.73L21.11 20.46L19 18.35ZM7.99999 15V17H6.99999V15H4.99999V14H12.11L13.11 15H7.99999ZM19 7.99998C19 6.93911 18.5786 5.9217 17.8284 5.17155C17.0783 4.42141 16.0609 3.99998 15 3.99998V2.99998C15 2.46955 14.7893 1.96084 14.4142 1.58577C14.0391 1.21069 13.5304 0.99998 13 0.99998H8.99999C8.46955 0.99998 7.96084 1.21069 7.58577 1.58577C7.2107 1.96084 6.99999 2.46955 6.99999 2.99998V3.79998L19 15.8V7.99998ZM13 3.99998H8.99999V2.99998H13V3.99998Z" fill="#8B8B8B"/>
</svg>
