<svg width="53" height="53" viewBox="0 0 53 53" fill="none" xmlns="http://www.w3.org/2000/svg">
<path d="M47.5 26.5C47.5 20.9305 45.2875 15.589 41.3492 11.6508C37.411 7.71249 32.0695 5.5 26.5 5.5C20.9305 5.5 15.589 7.71249 11.6508 11.6508C7.71249 15.589 5.5 20.9305 5.5 26.5C5.5 32.0695 7.71249 37.411 11.6508 41.3492C15.589 45.2875 20.9305 47.5 26.5 47.5C32.0695 47.5 37.411 45.2875 41.3492 41.3492C45.2875 37.411 47.5 32.0695 47.5 26.5ZM52.75 26.5C52.75 33.4619 49.9844 40.1387 45.0616 45.0616C40.1387 49.9844 33.4619 52.75 26.5 52.75C23.0528 52.75 19.6394 52.071 16.4546 50.7518C13.2698 49.4327 10.376 47.4991 7.93845 45.0616C3.01562 40.1387 0.25 33.4619 0.25 26.5C0.25 19.5381 3.01562 12.8613 7.93845 7.93845C12.8613 3.01562 19.5381 0.25 26.5 0.25C29.9472 0.25 33.3606 0.928976 36.5454 2.24816C39.7302 3.56735 42.624 5.50091 45.0616 7.93845C47.4991 10.376 49.4327 13.2698 50.7518 16.4546C52.071 19.6394 52.75 23.0528 52.75 26.5V26.5ZM35.6875 16C37.7875 16 39.625 17.8375 39.625 19.9375C39.625 22.0375 37.7875 23.875 35.6875 23.875C33.5875 23.875 31.75 22.0375 31.75 19.9375C31.75 17.8375 33.5875 16 35.6875 16ZM21.25 19.9375C21.25 22.0375 19.4125 23.875 17.3125 23.875C15.2125 23.875 13.375 22.0375 13.375 19.9375C13.375 17.8375 15.2125 16 17.3125 16C19.4125 16 21.25 17.8375 21.25 19.9375ZM26.5 31.75C31.0938 31.75 35.1363 33.64 37.4988 36.5013L33.7713 40.2287C32.59 38.3125 29.7812 37 26.5 37C23.2188 37 20.41 38.3125 19.2287 40.2287L15.5012 36.5013C17.8637 33.64 21.9062 31.75 26.5 31.75Z" fill="black" fill-opacity="0.6"/>
</svg>
