<svg width="55" height="55" viewBox="0 0 55 55" fill="none" xmlns="http://www.w3.org/2000/svg">
<path d="M30.2083 30.2082H24.7917V13.9582H30.2083V30.2082ZM30.2083 41.0415H24.7917V35.6248H30.2083V41.0415ZM27.5 0.416504C23.9434 0.416504 20.4216 1.11704 17.1357 2.4781C13.8498 3.83917 10.8641 5.83411 8.3492 8.34903C3.27009 13.4281 0.416672 20.3169 0.416672 27.4998C0.416672 34.6828 3.27009 41.5715 8.3492 46.6506C10.8641 49.1656 13.8498 51.1605 17.1357 52.5216C20.4216 53.8826 23.9434 54.5832 27.5 54.5832C34.683 54.5832 41.5717 51.7298 46.6508 46.6506C51.7299 41.5715 54.5833 34.6828 54.5833 27.4998C54.5833 23.9432 53.8828 20.4214 52.5217 17.1355C51.1607 13.8496 49.1657 10.8639 46.6508 8.34903C44.1359 5.83411 41.1503 3.83917 37.8644 2.4781C34.5784 1.11704 31.0566 0.416504 27.5 0.416504V0.416504Z" fill="#E60202"/>
</svg>
